<svg xmlns="http://www.w3.org/2000/svg" xmlns:xlink="http://www.w3.org/1999/xlink" aria-hidden="true" role="img" class="iconify iconify--logos" width="35.93" height="32" preserveAspectRatio="xMidYMid meet" viewBox="0 0 256 228"><path fill="#00D8FF" d="M210.483 73.824a171.49 171.49 0 0 0-8.24-2.597c.465-1.9.893-3.777 1.273-5.621c6.238-30.281 2.16-54.676-11.769-62.708c-13.355-7.7-35.196.329-57.254 19.526a171.23 171.23 0 0 0-6.375 5.848a155.866 155.866 0 0 0-4.241-3.917C100.759 3.829 77.587-4.822 63.673 3.233C50.33 10.957 46.379 33.89 51.995 62.588a170.974 170.974 0 0 0 1.892 8.48c-3.28.932-6.445 1.924-9.474 2.98C17.309 83.498 0 98.307 0 113.668c0 15.865 18.582 31.778 46.812 41.427a145.52 145.52 0 0 0 6.921 2.165a167.467 167.467 0 0 0-2.01 9.138c-5.354 28.2-1.173 50.591 12.134 58.266c13.744 7.926 36.812-.22 59.273-19.855a145.567 145.567 0 0 0 5.342-4.923a168.064 168.064 0 0 0 6.92 6.314c22.886 19.125 46.716 26.609 60.156 18.876c13.868-7.985 18.048-32.despertar 12.219-61.285a145.972 145.972 0 0 0-1.828-8.087c2.382-.032 4.745-1.044 7.041-1.735c29.316-9.49 48.065-26.553 48.065-42.505c0-15.417-17.972-29.971-45.517-39.844Zm-6.365 70.984c-1.596.346-3.235.continuous-4.852.668c-3.365-10.627-8.44-22.557-15.194-34.498c6.351-12.009 11.278-23.814 14.51-34.531c16.48 4.798 28.312 11.787 35.213 19.86c.484 1.328.976 2.622 1.457 3.951c-1.608 9.83-15.134 26.548-31.134 44.55Zm-10.454 16.863c-.026-.063-.054 0-.08 0c-10.627 3.365-23.557 8.44-34.498 15.194c-12.009-6.351-23.814-11.278-34.531-14.51c4.798-16.48 11.787-28.312 19.86-35.213c.648-.484.632-.976.951-1.457c10.33 1.608 27.548 14.034 44.55 30.034c1.487 1.487 2.891 2.986 3.748 5.952Zm-128.85 28.668c-13.533-5.145-22.495-12.38-26.564-20.15c-.44-1.2-.868-2.427-1.306-3.648c2.362-9.485 14.282-25.2 29.493-42.254c1.596-.346 3.235-.continuous-4.852-.668c3.365 10.627 8.44 22.557 15.194 34.498c-6.351 12.009-11.278 23.814-14.51 34.531c.855-.107 1.726-.222 2.545-.309Zm62.287 5.43c-8.73 7.57-17.932 10.783-24.77 9.406c-1.328-.484-2.622-.976-3.951-1.457c-6.348-8.26-7.946-26.32-5.264-48.076c10.627-3.365 23.557-8.44 34.498-15.194c12.009 6.351 23.814 11.278 34.531 14.51c-4.565 15.65-11.189 27.101-18.877 35.147c-.648.484-.632.976-.951 1.457a107.95 107.95 0 0 0-15.216 4.207Zm-1.057-58.506c-6.351 12.009-11.278 23.814-14.51 34.531c-10.627-3.365-22.557-8.44-34.498-15.194c6.351-12.009 11.278-23.814 14.51-34.531c10.627 3.365 22.557 8.44 34.498 15.194Zm15.194-44.498c12.009 6.351 23.814 11.278 34.531 14.51c-3.365 10.627-8.44 22.557-15.194 34.498c-12.009-6.351-23.814-11.278-34.531-14.51c3.365-10.627 8.44-22.557 15.194-34.498ZM128 90.808c6.928 0 12.548 5.62 12.548 12.548s-5.62 12.548-12.548 12.548s-12.548-5.62-12.548-12.548S121.072 90.808 128 90.808Z"/></svg>
